<svg width="393" height="150" viewBox="0 0 393 150" fill="none" xmlns="http://www.w3.org/2000/svg">
<path d="M52.9389 110L33.2344 40.1818H46.8366L59.4162 91.4886H60.0639L73.4957 40.1818H85.8707L99.3367 91.5227H99.9503L112.53 40.1818H126.132L106.428 110H93.9503L79.973 61.0114H79.4276L65.4162 110H52.9389ZM147.054 111.023C141.94 111.023 137.508 109.898 133.758 107.648C130.008 105.398 127.099 102.25 125.031 98.2045C122.986 94.1591 121.963 89.4318 121.963 84.0227C121.963 78.6136 122.986 73.875 125.031 69.8068C127.099 65.7386 130.008 62.5795 133.758 60.3295C137.508 58.0795 141.94 56.9545 147.054 56.9545C152.167 56.9545 156.599 58.0795 160.349 60.3295C164.099 62.5795 166.997 65.7386 169.042 69.8068C171.111 73.875 172.145 78.6136 172.145 84.0227C172.145 89.4318 171.111 94.1591 169.042 98.2045C166.997 102.25 164.099 105.398 160.349 107.648C156.599 109.898 152.167 111.023 147.054 111.023ZM147.122 101.136C149.895 101.136 152.213 100.375 154.076 98.8523C155.94 97.3068 157.326 95.2386 158.236 92.6477C159.167 90.0568 159.633 87.1705 159.633 83.9886C159.633 80.7841 159.167 77.8864 158.236 75.2955C157.326 72.6818 155.94 70.6023 154.076 69.0568C152.213 67.5114 149.895 66.7386 147.122 66.7386C144.281 66.7386 141.917 67.5114 140.031 69.0568C138.167 70.6023 136.77 72.6818 135.838 75.2955C134.929 77.8864 134.474 80.7841 134.474 83.9886C134.474 87.1705 134.929 90.0568 135.838 92.6477C136.77 95.2386 138.167 97.3068 140.031 98.8523C141.917 100.375 144.281 101.136 147.122 101.136ZM177.819 110V57.6364H189.785V66.3636H190.33C191.285 63.3409 192.921 61.0114 195.239 59.375C197.58 57.7159 200.251 56.8864 203.251 56.8864C203.933 56.8864 204.694 56.9205 205.535 56.9886C206.399 57.0341 207.114 57.1136 207.683 57.2273V68.5795C207.16 68.3977 206.33 68.2386 205.194 68.1023C204.08 67.9432 203.001 67.8636 201.955 67.8636C199.705 67.8636 197.683 68.3523 195.887 69.3295C194.114 70.2841 192.717 71.6136 191.694 73.3182C190.671 75.0227 190.16 76.9886 190.16 79.2159V110H177.819ZM211.082 110V57.6364H222.877V66.5341H223.491C224.582 63.5341 226.388 61.1932 228.911 59.5114C231.434 57.8068 234.445 56.9545 237.945 56.9545C241.491 56.9545 244.479 57.8182 246.911 59.5455C249.366 61.25 251.093 63.5795 252.093 66.5341H252.638C253.797 63.625 255.752 61.3068 258.502 59.5795C261.275 57.8295 264.559 56.9545 268.354 56.9545C273.172 56.9545 277.104 58.4773 280.15 61.5227C283.195 64.5682 284.718 69.0114 284.718 74.8523V110H272.343V76.7614C272.343 73.5114 271.479 71.1364 269.752 69.6364C268.025 68.1136 265.911 67.3523 263.411 67.3523C260.434 67.3523 258.104 68.2841 256.422 70.1477C254.763 71.9886 253.934 74.3864 253.934 77.3409V110H241.832V76.25C241.832 73.5455 241.013 71.3864 239.377 69.7727C237.763 68.1591 235.65 67.3523 233.036 67.3523C231.263 67.3523 229.65 67.8068 228.195 68.7159C226.741 69.6023 225.582 70.8636 224.718 72.5C223.854 74.1136 223.422 76 223.422 78.1591V110H211.082ZM304.779 40.1818V110H292.438V40.1818H304.779ZM320.339 129.636C318.658 129.636 317.101 129.5 315.669 129.227C314.26 128.977 313.135 128.682 312.294 128.341L315.158 118.727C316.953 119.25 318.555 119.5 319.964 119.477C321.374 119.455 322.612 119.011 323.68 118.148C324.771 117.307 325.692 115.898 326.442 113.92L327.499 111.091L308.51 57.6364H321.601L333.669 97.1818H334.214L346.317 57.6364H359.442L338.476 116.341C337.499 119.114 336.203 121.489 334.589 123.466C332.976 125.466 330.999 126.989 328.658 128.034C326.339 129.102 323.567 129.636 320.339 129.636Z" fill="black"/>
<ellipse cx="147.5" cy="83.5" rx="14.5" ry="18.5" fill="#69BE7F"/>
<ellipse cx="147.5" cy="84" rx="11.5" ry="15" fill="#94CCA3"/>
<path d="M141.5 78C142.881 78 144 79.3431 144 81C144 82.6569 142.881 84 141.5 84C140.119 84 139 82.6569 139 81C139 79.3431 140.119 78 141.5 78ZM152.5 78C153.881 78 155 79.3431 155 81C155 82.6569 153.881 84 152.5 84C151.119 84 150 82.6569 150 81C150 79.3431 151.119 78 152.5 78Z" fill="black"/>
<ellipse cx="142" cy="79.5" rx="1" ry="1.5" fill="#D9D9D9"/>
<ellipse cx="153" cy="79.5" rx="1" ry="1.5" fill="#D9D9D9"/>
<path d="M141.466 67.7554L138.578 64.1178C137.229 62.4188 135.365 61.2045 133.265 60.6581L130.945 60.0543" stroke="#69BE7F"/>
<path d="M153.249 67.4072L156.137 63.7696C157.486 62.0706 159.35 60.8563 161.45 60.3099L163.77 59.7061" stroke="#69BE7F"/>
<path d="M142 88C145.148 89.5738 148.852 89.5738 152 88" stroke="black" stroke-linejoin="round"/>
<circle cx="164.5" cy="59.5" r="1.5" fill="#69BE7F"/>
<circle cx="130.5" cy="59.5" r="1.5" fill="#69BE7F"/>
</svg>
